<?xml version="1.0" encoding="utf-8"?>
<!-- Generator: Adobe Illustrator 24.1.3, SVG Export Plug-In . SVG Version: 6.00 Build 0)  -->
<svg version="1.1" id="Layer_1" xmlns="http://www.w3.org/2000/svg" xmlns:xlink="http://www.w3.org/1999/xlink" x="0px" y="0px"
	 viewBox="0 0 1000 800" style="enable-background:new 0 0 1000 800;" xml:space="preserve">
<style type="text/css">
	.st0{fill:#171B3B;}
	.st1{fill:#161546;}
	.st2{fill:#ED1C24;}
</style>
<path class="st0" d="M80.43,691.99c0.16-0.06,0.33-0.13,0.49-0.19C80.86,692.1,80.68,692.14,80.43,691.99z"/>
<path class="st1" d="M74.11,696.46c0.04-0.05,0.07-0.11,0.11-0.16C74.18,696.35,74.15,696.41,74.11,696.46
	C74.11,696.46,74.11,696.46,74.11,696.46z"/>
<g>
	<g>
		<g>
			<path d="M361.47,475.35l2.92,4.58c1.93,3.04,4.97,4.42,8.56,4.42h20.72c4.42,0,6.91-2.48,6.91-6.9v-32.37
				c-5.16,4.63-10.47,9.08-15.9,13.37C377.17,464.38,369.42,470.01,361.47,475.35z M393.67,290.96h-30.39c-4.42,0-6.9,2.48-6.9,6.9
				v100.84l-66.03-103.33c-1.93-3.04-4.97-4.42-8.56-4.42h-20.72c-4.43,0-6.91,2.48-6.91,6.9v179.58c0,1.32,0.22,2.47,0.65,3.42
				c4.17-0.07,8.35-0.47,12.37-1.09c10.73-1.68,21.13-4.56,31.18-8.36v-94.82l45.23,70.78c8.15-5.55,16-11.52,23.54-17.72
				c11.76-9.67,23.08-20.04,33.45-31.25V297.87C400.58,293.45,398.09,290.96,393.67,290.96z"/>
		</g>
		<g>
			<path class="st2" d="M477.07,331.35c-1.49,6.17-3.52,12.19-5.9,17.78c-3.39,7.97-7.22,15.73-11.44,23.25
				c-15.31,27.38-35.76,51.78-59.16,72.71c-5.16,4.63-10.47,9.08-15.9,13.37c-7.52,5.93-15.27,11.56-23.22,16.9
				c-4.28,2.88-8.63,5.68-13.02,8.4c-26.37,16.31-54.9,30.05-85.48,35.16c-16.85,2.83-35.67,2.49-49.11-8.06
				c-13.98-10.97-18.59-30.69-16.01-48.27c2.52-17.13,10.64-33.23,19.06-48.13c-2.4,8.81-4.62,17.82-4.78,26.98
				c-0.16,9.66,2.24,19.7,8.55,27.02c8.23,9.54,21.18,12.61,34.12,12.42c4.17-0.07,8.35-0.47,12.37-1.09
				c10.73-1.68,21.13-4.56,31.18-8.36c15.96-6.03,31.05-14.39,45.23-24.03c8.15-5.55,16-11.52,23.54-17.72
				c11.76-9.67,23.08-20.04,33.45-31.25c14.73-15.88,27.56-33.43,37.07-53c0.82-1.68,1.62-3.38,2.38-5.09
				c6.84-15.24,11.56-32.5,7.05-48.58c-4.51-16.09-21-29.65-37.27-25.87c11.26-3.17,23.23-4.51,34.7-2.16
				C479.33,270.83,484,302.7,477.07,331.35z"/>
		</g>
		<g>
			<path class="st2" d="M314.56,287.9c-0.01,0.01,0,0.03,0.02,0.02c18-10.56,37.13-19.69,56.63-27.07
				c19.25-7.29,39.83-11.88,60.51-10.75c17.69,0.96,36.39,5.34,48.26,19.46c5.33,6.34,8.63,14.91,9.9,23.09l1.85-7.02
				c1.21-4.46,1.94-9.09,1.97-13.72c0.18-27.01-25.78-35.88-48.2-36.69c-13.95-0.51-27.93,1.58-41.42,5
				C404.07,240.21,354.22,252.8,314.56,287.9z"/>
		</g>
		<g>
			<g>
				<path d="M542.99,338.8h-69.75c-1.16,4.81-2.74,9.5-4.6,13.85c-2.64,6.21-5.63,12.25-8.91,18.12h22.01v108.16
					c0,3.32,1.87,5.19,5.19,5.19h22.83c3.32,0,5.19-1.87,5.19-5.19V370.77h28.03c3.32,0,5.19-1.87,5.19-5.19v-21.59
					C548.18,340.67,546.32,338.8,542.99,338.8z"/>
			</g>
			<g>
				<path d="M618.32,440.37c0,2.21-0.17,4.25-0.34,6.29c-0.34,2.72-2.04,3.91-4.59,3.91h-20.73h-36.01
					c3.09,10.09,11.02,14.1,19.87,14.1c4.76,0,9.51-1.7,12.57-4.25c1.7-1.36,3.06-2.21,5.27-2.21l16.31-0.17
					c3.06,0,4.76,2.04,3.4,4.76c-6.63,14.78-20.56,22.43-37.89,22.43c-28.21,0-46.22-19.54-46.22-44.86
					c0-25.32,18.69-44.86,45.54-44.86C600.31,395.51,618.32,414.71,618.32,440.37z M592.95,431.19
					c-2.63-9.67-10.12-13.08-17.62-13.08c-9.55,0-16.16,4.61-18.79,13.08H592.95z"/>
			</g>
			<g>
				<path d="M714.99,455.32c-5.27,17.67-21.92,29.9-41.8,29.9c-25.83,0-45.03-19.54-45.03-44.86c0-25.32,19.2-44.86,45.03-44.86
					c19.88,0,36.53,12.23,41.8,29.9c1.02,2.89-0.68,4.76-3.57,4.76h-18.69c-2.21,0-3.74-1.02-5.1-2.89
					c-3.06-4.25-8.33-6.63-14.44-6.63c-11.04,0-19.54,7.99-19.54,19.71c0,11.72,8.5,19.71,19.54,19.71c6.12,0,11.38-2.38,14.44-6.46
					c1.36-2.04,2.72-3.06,5.1-3.06h18.69C714.31,450.56,716.01,452.43,714.99,455.32z"/>
			</g>
			<g>
				<path d="M802.84,430.26v49.61c0,2.72-1.53,4.25-4.25,4.25H781.6c-2.72,0-4.25-1.53-4.25-4.25v-47.41
					c0-8.5-4.93-12.23-11.38-12.23c-7.65,0-12.4,4.25-12.4,14.27v45.37c0,2.72-1.53,4.25-4.25,4.25h-16.99
					c-2.72,0-4.25-1.53-4.25-4.25V369.43c0-2.72,1.53-4.25,4.25-4.25h16.99c2.72,0,4.25,1.53,4.25,4.25v37.49
					c3.99-5.9,11.23-10.14,22.09-10.14C791.45,396.78,802.84,409.02,802.84,430.26z"/>
			</g>
		</g>
	</g>
	<g>
		<path class="st2" d="M510.62,529.78c-0.11,2.47-0.77,4.66-1.96,6.56c-1.2,1.9-2.88,3.37-5.04,4.41c-2.16,1.04-4.63,1.56-7.4,1.56
			c-4.58,0-8.18-1.52-10.81-4.57c-2.63-3.04-3.95-7.34-3.95-12.89v-1.76c0-3.48,0.59-6.53,1.78-9.14c1.19-2.61,2.9-4.63,5.13-6.05
			c2.23-1.42,4.82-2.14,7.75-2.14c4.23,0,7.62,1.14,10.19,3.41c2.57,2.27,4.03,5.4,4.38,9.39h-8.37c-0.06-2.16-0.6-3.72-1.6-4.66
			c-1-0.94-2.54-1.42-4.59-1.42c-2.09,0-3.62,0.8-4.59,2.39c-0.97,1.6-1.48,4.14-1.53,7.64v2.51c0,3.79,0.47,6.5,1.4,8.13
			c0.93,1.63,2.54,2.44,4.82,2.44c1.93,0,3.41-0.46,4.43-1.39c1.02-0.93,1.56-2.4,1.63-4.42H510.62z"/>
		<path class="st2" d="M513.2,528.36c0-2.64,0.5-4.98,1.51-7.04c1-2.06,2.45-3.64,4.33-4.75c1.88-1.11,4.09-1.66,6.63-1.66
			c3.88,0,6.93,1.22,9.16,3.67c2.23,2.45,3.35,5.78,3.35,10v0.29c0,4.12-1.12,7.38-3.36,9.8c-2.24,2.42-5.28,3.63-9.1,3.63
			c-3.68,0-6.64-1.13-8.88-3.38c-2.23-2.25-3.44-5.31-3.61-9.17L513.2,528.36z M521.27,528.87c0,2.44,0.38,4.23,1.13,5.37
			c0.75,1.14,1.86,1.71,3.33,1.71c2.87,0,4.34-2.25,4.4-6.76v-0.83c0-4.74-1.48-7.1-4.45-7.1c-2.7,0-4.15,2.04-4.38,6.13
			L521.27,528.87z"/>
		<path class="st2" d="M549.36,515.4l0.26,3.1c1.83-2.39,4.3-3.59,7.39-3.59c3.27,0,5.48,1.33,6.63,3.98
			c1.75-2.65,4.29-3.98,7.61-3.98c5.25,0,7.94,3.24,8.09,9.72v17.19h-8.09v-16.67c0-1.35-0.22-2.33-0.67-2.95
			c-0.45-0.62-1.26-0.93-2.44-0.93c-1.59,0-2.78,0.72-3.57,2.17l0.02,0.34v18.04h-8.09v-16.63c0-1.38-0.22-2.38-0.65-3
			c-0.43-0.62-1.25-0.93-2.46-0.93c-1.55,0-2.73,0.72-3.54,2.17v18.38h-8.06V515.4H549.36z"/>
		<path class="st2" d="M607.97,528.8c0,4.1-0.91,7.38-2.71,9.83c-1.81,2.45-4.25,3.67-7.33,3.67c-2.38,0-4.33-0.89-5.86-2.66v12.33
			H584V515.4h7.54l0.24,2.44c1.55-1.95,3.58-2.93,6.1-2.93c3.19,0,5.67,1.2,7.44,3.6c1.77,2.4,2.66,5.7,2.66,9.9V528.8z
			 M599.91,528.29c0-4.69-1.34-7.03-4.02-7.03c-1.91,0-3.19,0.7-3.83,2.1v10.4c0.7,1.46,1.99,2.2,3.88,2.2
			c2.57,0,3.89-2.26,3.97-6.79V528.29z"/>
		<path class="st2" d="M626.95,538.96c-1.71,2.23-4.01,3.34-6.91,3.34c-2.84,0-4.99-0.84-6.45-2.53c-1.46-1.68-2.19-4.1-2.19-7.26
			V515.4h8.06v17.16c0,2.26,1.08,3.39,3.23,3.39c1.85,0,3.17-0.67,3.95-2.03V515.4h8.11v26.42h-7.56L626.95,538.96z"/>
		<path class="st2" d="M648.55,508.83v6.57h4.26v5.71h-4.26v12.08c0,0.99,0.18,1.68,0.53,2.08c0.35,0.39,1.04,0.59,2.08,0.59
			c0.8,0,1.47-0.05,2.01-0.15v5.88c-1.45,0.47-2.97,0.71-4.55,0.71c-2.78,0-4.83-0.67-6.15-2c-1.32-1.33-1.99-3.36-1.99-6.08v-13.11
			h-3.3v-5.71h3.3v-6.57H648.55z"/>
		<path class="st2" d="M668.51,542.3c-3.97,0-7.19-1.21-9.64-3.63c-2.46-2.42-3.68-5.56-3.68-9.44v-0.68c0-2.7,0.49-5.09,1.47-7.15
			c0.98-2.07,2.41-3.67,4.29-4.8c1.88-1.13,4.12-1.7,6.7-1.7c3.64,0,6.51,1.15,8.61,3.46c2.11,2.3,3.16,5.51,3.16,9.63v3.2h-16.03
			c0.29,1.48,0.92,2.65,1.89,3.49c0.97,0.85,2.23,1.27,3.78,1.27c2.55,0,4.55-0.91,5.98-2.73l3.68,4.44c-1,1.42-2.43,2.54-4.27,3.38
			C672.61,541.88,670.63,542.3,668.51,542.3z M667.6,521.25c-2.36,0-3.76,1.6-4.21,4.79h8.13v-0.63c0.03-1.32-0.29-2.34-0.98-3.06
			C669.85,521.62,668.87,521.25,667.6,521.25z"/>
		<path class="st2" d="M698.32,522.84l-2.66-0.2c-2.54,0-4.16,0.81-4.88,2.44v16.72h-8.06V515.4h7.56l0.26,3.39
			c1.36-2.59,3.25-3.88,5.67-3.88c0.86,0,1.61,0.1,2.25,0.29L698.32,522.84z"/>
		<path class="st2" d="M718.61,523.09c-0.94-1.37-1.68-2.67-2.21-3.91c-0.53-1.24-0.8-2.51-0.8-3.83c0-2.86,0.91-5.18,2.73-6.95
			c1.82-1.77,4.2-2.65,7.13-2.65c2.63,0,4.81,0.82,6.53,2.45c1.72,1.63,2.58,3.67,2.58,6.09c0,3.03-1.63,5.71-4.91,8.06l-1.82,1.29
			l5.36,6.27c0.88-1.79,1.32-3.75,1.32-5.88h6.77c0,4.8-1.08,8.65-3.25,11.55l5.31,6.23h-9l-1.63-1.88
			c-1.34,0.81-2.71,1.42-4.1,1.81c-1.4,0.39-2.97,0.59-4.73,0.59c-3.45,0-6.21-0.92-8.28-2.77c-2.07-1.85-3.11-4.28-3.11-7.29
			c0-1.64,0.41-3.13,1.23-4.47c0.82-1.33,2.42-2.89,4.8-4.66L718.61,523.09z M724.42,535.98c1.4,0,2.74-0.33,4.02-1l-6.27-7.28
			l-0.22,0.15c-0.91,1.14-1.36,2.43-1.36,3.86c0,1.19,0.37,2.2,1.1,3.03S723.34,535.98,724.42,535.98z M722.55,515.25
			c0,1.14,0.61,2.52,1.82,4.15l1.6-1.03c0.73-0.49,1.27-0.99,1.6-1.51c0.33-0.52,0.5-1.18,0.5-1.98c0-0.75-0.25-1.4-0.77-1.95
			c-0.51-0.55-1.14-0.83-1.89-0.83c-0.89,0-1.59,0.29-2.11,0.87C722.81,513.54,722.55,514.31,722.55,515.25z"/>
		<path class="st2" d="M767.97,541.81h-8.37v-35.55h8.37V541.81z"/>
		<path class="st2" d="M800.46,512.88H790v28.93h-8.4v-28.93h-10.26v-6.62h29.12V512.88z"/>
	</g>
</g>
</svg>
