<?xml version="1.0" encoding="utf-8"?>
<!-- Generator: Adobe Illustrator 24.1.3, SVG Export Plug-In . SVG Version: 6.00 Build 0)  -->
<svg version="1.1" id="Layer_1" xmlns="http://www.w3.org/2000/svg" xmlns:xlink="http://www.w3.org/1999/xlink" x="0px" y="0px"
	 viewBox="0 0 2000 2000" style="enable-background:new 0 0 2000 2000;" xml:space="preserve">
<style type="text/css">
	.st0{fill:none;}
</style>
<g>
	<g>
		<g>
			<path d="M1000,1768c-103.67,0-204.25-20.31-298.95-60.36c-91.46-38.68-173.59-94.05-244.11-164.58
				c-70.52-70.52-125.9-152.65-164.58-244.11C252.31,1204.25,232,1103.67,232,1000s20.31-204.25,60.36-298.95
				c38.68-91.46,94.05-173.59,164.58-244.11s152.65-125.9,244.11-164.58C795.75,252.31,896.33,232,1000,232
				s204.25,20.31,298.95,60.36c91.46,38.68,173.59,94.05,244.11,164.58c70.52,70.52,125.9,152.65,164.58,244.11
				c40.05,94.7,60.36,195.28,60.36,298.95s-20.31,204.25-60.36,298.95c-38.68,91.46-94.05,173.59-164.58,244.11
				c-70.52,70.52-152.65,125.9-244.11,164.58C1204.25,1747.69,1103.67,1768,1000,1768z M1000,280c-397.01,0-720,322.99-720,720
				c0,397.01,322.99,720,720,720c397.01,0,720-322.99,720-720C1720,602.99,1397.01,280,1000,280z"/>
		</g>
	</g>
	<g>
		<g>
			<path d="M1501.14,1573.88c-11.04,0-20.98-7.67-23.43-18.9c-43.15-198.05-221.84-341.8-424.88-341.8H947.18
				c-203.04,0-381.73,143.75-424.88,341.8c-2.82,12.95-15.61,21.16-28.56,18.34c-12.95-2.82-21.16-15.61-18.34-28.56
				c11.66-53.49,32.23-104.26,61.17-150.91c28.37-45.74,63.95-86.21,105.74-120.27c42.16-34.36,89.35-61.15,140.27-79.61
				c52.69-19.11,108.07-28.79,164.61-28.79h105.65c56.54,0,111.92,9.69,164.61,28.79c50.91,18.46,98.11,45.25,140.27,79.61
				c41.79,34.06,77.37,74.53,105.74,120.27c28.93,46.64,49.51,97.41,61.17,150.91c2.82,12.95-5.39,25.74-18.34,28.56
				C1504.55,1573.7,1502.83,1573.88,1501.14,1573.88z"/>
		</g>
		<g>
			<path d="M1000,1213.18c-82.91,0-160.86-32.29-219.49-90.92c-58.63-58.63-90.92-136.58-90.92-219.49
				c0-82.91,32.29-160.86,90.92-219.49c58.63-58.63,136.58-90.92,219.49-90.92s160.87,32.29,219.49,90.92
				c58.63,58.63,90.92,136.58,90.92,219.49c0,82.91-32.29,160.86-90.92,219.49S1082.91,1213.18,1000,1213.18z M1000,640.36
				c-144.69,0-262.41,117.72-262.41,262.41s117.72,262.41,262.41,262.41c144.69,0,262.41-117.72,262.41-262.41
				S1144.69,640.36,1000,640.36z"/>
		</g>
	</g>
</g>
<path class="st0" d="M1030,1768L1030,1768c-440.72,0-798-357.28-798-798v0c0-440.72,357.28-798,798-798h0
	c440.72,0,798,357.28,798,798v0C1828,1410.72,1470.72,1768,1030,1768z"/>
</svg>
